<?xml version="1.0" encoding="utf-8"?>
<!-- Generator: Adobe Illustrator 20.0.0, SVG Export Plug-In . SVG Version: 6.00 Build 0)  -->
<svg version="1.1" id="Layer_1" xmlns="http://www.w3.org/2000/svg" xmlns:xlink="http://www.w3.org/1999/xlink" x="0px" y="0px"
	 viewBox="0 0 400.7 414.7" style="enable-background:new 0 0 400.7 414.7;" xml:space="preserve">
<style type="text/css">
  .st0{fill:none;stroke:#211F1F;stroke-width:3;stroke-miterlimit:10;}
  .st1{fill:none;stroke:#e6734b;stroke-width:4.5;stroke-miterlimit:10;opacity:0.8;}
  .st2{fill:none;stroke:#000000;stroke-width:3;stroke-miterlimit:10;}
  .st3{clip-path:url(#XMLID_2_);fill:none;stroke:#211F1F;stroke-width:3;stroke-miterlimit:10;}
  .st4{clip-path:url(#XMLID_3_);}
  .st5{fill:none;stroke:#211F1F;stroke-width:4.5;stroke-miterlimit:10;}
  .st6{fill:none;stroke:#00B48D;stroke-width:3;stroke-miterlimit:10;}
  .st7{fill:none;stroke:#915591;stroke-width:6;stroke-miterlimit:10;}
  .st8{fill:none;stroke:#FFFFFF;stroke-width:4.5;stroke-miterlimit:10;}
  .st9{fill:#915591;stroke:#211F1F;stroke-width:3;stroke-miterlimit:10;}
  .st10{fill:#915591;}
  .st11{clip-path:url(#XMLID_4_);fill:none;stroke:#000000;stroke-width:3;stroke-miterlimit:10;}
  .st12{fill:none;stroke:#000000;stroke-width:3;stroke-miterlimit:10;}
  .st13{fill:none;stroke:#231F20;stroke-width:3;stroke-miterlimit:10;}
  .st14{fill:none;stroke:#231F20;stroke-width:4.5;stroke-miterlimit:10;}
  .st15{clip-path:url(#XMLID_5_);fill:#915591;stroke:#000000;stroke-width:3;stroke-miterlimit:10;}
  .st16{clip-path:url(#XMLID_6_);fill:none;stroke:#231F20;stroke-width:3;stroke-miterlimit:10;}
  .st17{fill:none;stroke:#F0F0F0;stroke-width:3;stroke-miterlimit:10;}
</style>
<g>
	<g id="XMLID_111_">
		<g id="XMLID_138_">
			<path id="XMLID_140_" class="st0" d="M289.7,228.9c-4.2-2.2-7-6.5-7-11.6l0.4-98.8"/>
			<path id="XMLID_139_" class="st0" d="M363.5,228.9c4.2-2.2,7-6.5,7-11.6l-0.4-98.8"/>
		</g>
		<g id="XMLID_135_">
			<g id="XMLID_136_">
				<path id="XMLID_137_" class="st1" d="M282.7,113.8c0-13.9,8.5-22.1,22.9-22.1"/>
			</g>
		</g>
		<g id="XMLID_132_">
			<g id="XMLID_133_">
				<path id="XMLID_134_" class="st1" d="M370.5,113.8c0-13.9-8.5-22.1-22.9-22.1"/>
			</g>
		</g>
		<g id="XMLID_129_">
			<path id="XMLID_131_" class="st0" d="M303.8,90.3c0.2,12.6,10.2,22.9,22.9,22.9"/>
			<path id="XMLID_130_" class="st0" d="M349.4,90.3c-0.2,12.6-10.2,22.9-22.9,22.9"/>
		</g>
		<g id="XMLID_120_">
			<g id="XMLID_122_">
				<g id="XMLID_126_">
					<path id="XMLID_128_" class="st2" d="M296,83.1c5.7,0,8.4-3.6,7.4-10.4c-1.3-8.7-4.2-18.3-4.2-26.5c0-14.2,11.7-26.2,26.2-26.2
						h2.3"/>
					<path id="XMLID_127_" class="st2" d="M357.2,83.1c-5.7,0-8.4-3.6-7.4-10.4c1.3-8.7,4.2-18.3,4.2-26.5
						c0-14.2-11.7-26.2-26.2-26.2h-2.3"/>
				</g>
				<g id="XMLID_123_">
					<defs>
						<polygon id="XMLID_124_" points="347.2,85.6 306,85.6 306,56.8 328,56.8 335.3,48.4 348.4,48.4 						"/>
					</defs>
					<clipPath id="XMLID_2_">
						<use xlink:href="#XMLID_124_"  style="overflow:visible;"/>
					</clipPath>
					<path id="XMLID_125_" class="st3" d="M344.1,47.4l-2.9,19.7c-0.4,3-1.8,5.8-4,8.1l-1.8,1.9c-2.2,2.3-5.3,3.6-8.7,3.6l0,0l0,0
						c-3.3,0-6.5-1.3-8.7-3.6l-1.8-1.9c-2.2-2.3-3.6-5.1-4-8.1l-2.2-14.4"/>
				</g>
			</g>
			<path id="XMLID_121_" class="st2" d="M306.8,50.8c0,0,21.1,0.4,38.3-12.8"/>
		</g>
		<path id="XMLID_119_" class="st1" d="M353.7,118.6c0,0,0,4.8-6.3,22.9c-5,14.2-0.4,35.2-0.4,35.2l0,0c10.5,33.1,21,66.2,31.5,99.4
			c0,0-9.2,7.2-51.8,7.2h0c-42.7,0-51.8-7.2-51.8-7.2c10.5-33.1,21-66.2,31.5-99.4l0,0c0,0,4.5-21-0.4-35.2
			c-6.4-18.2-6.3-22.9-6.3-22.9"/>
		<g id="XMLID_112_">
			<defs>
				<rect id="XMLID_113_" x="295.2" y="291.9" width="63.3" height="109.5"/>
			</defs>
			<clipPath id="XMLID_3_">
				<use xlink:href="#XMLID_113_"  style="overflow:visible;"/>
			</clipPath>
			<g id="XMLID_114_" class="st4">
				<line id="XMLID_118_" class="st5" x1="308.2" y1="396.7" x2="324.7" y2="396.7"/>
				<line id="XMLID_117_" class="st5" x1="346.7" y1="396.7" x2="329.9" y2="396.7"/>
				<path id="XMLID_116_" class="st0" d="M321.8,246.2v139.2h-12.3c0,0-10.7-99.9-10.7-172.2l7.3-22.3"/>
				<path id="XMLID_115_" class="st0" d="M332.8,246.2l0,139.2h12.3c0,0,10.7-99.9,10.7-172.2l-7.3-22.3"/>
			</g>
		</g>
	</g>
	<g id="XMLID_84_">
		<g id="XMLID_107_">
			<path id="XMLID_110_" class="st0" d="M200.5,29.9c-1-11.1,7.2-17.8,16.1-17.8c8.9,0,16.1,8.3,16.1,17.2c0,0-9.1,1.4-18-6.6"/>
			<path id="XMLID_109_" class="st0" d="M200.8,32.8l1.1,13.4c0.8,8.7,6.6,14.8,14.8,14.8c8.2,0,14-6.8,14.8-14.8l0.7-11.1"/>
			<path id="XMLID_108_" class="st6" d="M207.1,18.7"/>
		</g>
		<g id="XMLID_85_">
			<g id="XMLID_101_">
				<path id="XMLID_106_" class="st0" d="M190,309.4c0.9,24.1,4.5,77.9,4.5,77.9h14.9v-82.1"/>
				<path id="XMLID_105_" class="st0" d="M243,309.1c-0.9,23.9-4.5,78.1-4.5,78.1h-14.9v-82.1"/>
				<g id="XMLID_102_">
					<line id="XMLID_104_" class="st5" x1="191.6" y1="396.7" x2="212" y2="396.7"/>
					<line id="XMLID_103_" class="st5" x1="221.2" y1="396.7" x2="241.7" y2="396.7"/>
				</g>
			</g>
			<g id="XMLID_98_">
				<line id="XMLID_100_" class="st7" x1="185.5" y1="309.9" x2="214" y2="309.9"/>
				<line id="XMLID_99_" class="st7" x1="247.6" y1="309.9" x2="217.2" y2="309.9"/>
			</g>
			<path id="XMLID_97_" class="st8" d="M183.3,99.6c0,0,0,92.2,0,100.9h66.4l-0.4-100.9"/>
			<g id="XMLID_89_">
				<g id="XMLID_91_">
					<path id="XMLID_96_" class="st0" d="M179.1,230.3c-7.2,0-13-5.8-13-13l-3.1-82.3"/>
					<g id="XMLID_92_">
						<path id="XMLID_95_" class="st8" d="M163.9,130.2L163,96.8c0-9.2,6.6-16.1,15.6-18.6l19.1-5.6"/>
						<path id="XMLID_94_" class="st0" d="M253.9,230.3c7.2,0,13-5.8,13-13l3.1-82.3"/>
						<path id="XMLID_93_" class="st8" d="M269.2,130.2l0.9-33.5c0-9.2-6.6-16.1-15.6-18.6l-19.2-5.3"/>
					</g>
				</g>
				<path id="XMLID_90_" class="st9" d="M194.5,69.4l7.5,7.5c8.1,8.1,21.2,8.1,29.3,0l7.8-7.8"/>
				
					<rect x="190.2" y="66.3" transform="matrix(0.9685 -0.2491 0.2491 0.9685 -10.9723 51.0029)" class="st10" width="11.7" height="5.1"/>
				
					<rect x="230.7" y="66.3" transform="matrix(-0.9685 -0.2491 0.2491 -0.9685 448.4836 194.4675)" class="st10" width="11.7" height="5.1"/>
			</g>
			<g id="XMLID_86_">
				<path id="XMLID_88_" class="st1" d="M182.4,211.6c0,42.4,3.3,93.6,3.3,93.6h24v-75.6"/>
				<path id="XMLID_87_" class="st1" d="M250.7,211.6c0,42.4-3.3,93.6-3.3,93.6h-24v-75.6"/>
			</g>
		</g>
	</g>
	<g>
		<g id="XMLID_81_">
			<defs>
				<polygon id="XMLID_82_" points="102.2,55.8 97.6,74.8 97.6,74.8 90.7,87.8 121.3,88.8 121.3,72.3 				"/>
			</defs>
			<clipPath id="XMLID_4_">
				<use xlink:href="#XMLID_82_"  style="overflow:visible;"/>
			</clipPath>
			<path id="XMLID_83_" class="st11" d="M95.1,78.3c6.1,7.9,18.8,7.2,21.2-1.2c0,0-15.1-11.4-15.1-20.2"/>
		</g>
		<circle id="XMLID_80_" class="st12" cx="88.7" cy="34.2" r="12.5"/>
		<path id="XMLID_79_" class="st13" d="M112.4,100.4c11.4,0,20.7,5.9,20.7,16.8l4.1,103.2c0,7.2-5.8,13-13,13"/>
		<path id="XMLID_78_" class="st13" d="M56.8,100.4c-11.4,0-20.7,5.9-20.7,16.8"/>
		<path id="XMLID_77_" class="st13" d="M72.5,285.7c0,22.6-34.1,104.5-34.1,104.5H26.1l24.8-107.9"/>
		<path id="XMLID_76_" class="st13" d="M113.7,285.7c0,22.6-10.7,104.5-10.7,104.5H90.7l0-104.5"/>
		<line id="XMLID_75_" class="st14" x1="39.7" y1="399.8" x2="20.2" y2="399.8"/>
		<line id="XMLID_74_" class="st14" x1="104.5" y1="399.8" x2="87.7" y2="399.8"/>
		<path id="XMLID_73_" class="st1" d="M113.7,119.8c0,0,1.8,6.6-4.5,24.8c-5,14.2-2.4,36.5-0.9,46.8l13.1,84.6l-73.5,0l13.1-84.6
			c0,0,4-32.7-0.9-46.8c-6.4-18.2-4.5-24.8-4.5-24.8S102.5,119.8,113.7,119.8z"/>
		<g id="XMLID_70_">
			<defs>
				
					<rect id="XMLID_71_" x="58.9" y="22.3" transform="matrix(-1 -1.224647e-16 1.224647e-16 -1 169.6259 74.2055)" width="51.9" height="29.7"/>
			</defs>
			<clipPath id="XMLID_5_">
				<use xlink:href="#XMLID_71_"  style="overflow:visible;"/>
			</clipPath>
			<circle id="XMLID_72_" class="st15" cx="84.9" cy="51.2" r="17.2"/>
		</g>
		<g id="XMLID_67_">
			<defs>
				
					<rect id="XMLID_68_" x="63.1" y="56.9" transform="matrix(-1 -1.224647e-16 1.224647e-16 -1 168.7834 144.6998)" width="42.6" height="30.9"/>
			</defs>
			<clipPath id="XMLID_6_">
				<use xlink:href="#XMLID_68_"  style="overflow:visible;"/>
			</clipPath>
			<path id="XMLID_69_" class="st16" d="M67.3,50.5l2.9,19.7c0.5,3,1.8,5.8,4,8.1l1.8,1.9c2.2,2.3,5.3,3.6,8.7,3.6l0,0l0,0
				c3.3,0,6.5-1.3,8.7-3.6l1.8-1.9c2.2-2.3,3.6-5.1,4-8.1l3-19.7"/>
		</g>
		<line id="XMLID_66_" class="st12" x1="94.6" y1="50.5" x2="67.9" y2="50.5"/>
		<line id="XMLID_65_" class="st1" x1="68" y1="96.6" x2="68" y2="119.8"/>
		<line id="XMLID_64_" class="st1" x1="102.2" y1="96.6" x2="102.2" y2="119.8"/>
		<g id="XMLID_60_">
			<path id="XMLID_63_" class="st13" d="M55.2,67.8v-8.9c-6.4,0-11.3,6.9-11.3,6.9l-23.1,54.1c-3.1,6.8-2.2,14.1,0.8,21.6
				c0,0,15.8,0.2,22.1-7.1"/>
			<line id="XMLID_62_" class="st17" x1="59.8" y1="84.5" x2="54.2" y2="70.1"/>
			<rect id="XMLID_61_" x="49.5" y="67.8" class="st10" width="11.5" height="4.5"/>
		</g>
		<polygon id="XMLID_59_" class="st10" points="46.4,90 40.9,122.8 27.4,121.4 33.7,103.4 		"/>
		<line id="XMLID_58_" class="st13" x1="46.4" y1="87.8" x2="39" y2="122.6"/>
		<rect id="XMLID_57_" x="43" y="280.9" class="st10" width="51.3" height="4.8"/>
	</g>
</g>
</svg>
