<?xml version="1.0" encoding="utf-8"?>
<!-- Generator: Adobe Illustrator 20.0.0, SVG Export Plug-In . SVG Version: 6.00 Build 0)  -->
<svg version="1.1" id="Layer_1" xmlns="http://www.w3.org/2000/svg" xmlns:xlink="http://www.w3.org/1999/xlink" x="0px" y="0px"
	 viewBox="0 0 339 363" style="enable-background:new 0 0 339 363;" xml:space="preserve">
<style type="text/css">
	.st0{fill:none;stroke:#00B288;stroke-width:3;stroke-miterlimit:10;}
	.st1{fill:none;stroke:#56C5D0;stroke-width:4.5;stroke-miterlimit:10;}
	.st2{fill:none;stroke:#231F20;stroke-width:3;stroke-miterlimit:10;}
	.st3{clip-path:url(#XMLID_2_);fill:none;stroke:#F68D70;stroke-width:3;stroke-miterlimit:10;}
	.st4{fill:none;stroke:#F68D70;stroke-width:3;stroke-miterlimit:10;}
	.st5{clip-path:url(#XMLID_3_);fill:none;stroke:#231F20;stroke-width:3;stroke-miterlimit:10;}
	.st6{fill:none;stroke:#231F20;stroke-width:4.5;stroke-miterlimit:10;}
	.st7{fill:none;stroke:#56C5D0;stroke-width:3;stroke-miterlimit:10;}
	.st8{fill:none;stroke:#17181B;stroke-width:3;stroke-miterlimit:10;}
	.st9{fill:#F0F0F0;}
	.st10{fill:none;stroke:#17181B;stroke-width:4.5;stroke-miterlimit:10;}
	.st11{fill:none;stroke:#00B48D;stroke-width:4.5;stroke-miterlimit:10;}
	.st12{fill:#FFFFFF;stroke:#17181B;stroke-width:3;stroke-miterlimit:10;}
	.st13{fill:none;stroke:#F68D70;stroke-width:4.5;stroke-linecap:square;stroke-miterlimit:10;}
	.st14{fill:none;stroke:#F68D70;stroke-width:3;stroke-linecap:square;stroke-miterlimit:10;}
</style>
<g>
	<g>
		<g id="_x3C_Group_x3E__1_">
			<g>
				<path id="XMLID_174_" class="st0" d="M104.8,74.6"/>
				<path id="XMLID_173_" class="st0" d="M98.6,89.3"/>
				<g id="XMLID_171_">
					<polyline id="XMLID_172_" class="st1" points="90.8,87.5 75.9,236 114.9,236 					"/>
				</g>
				<path id="XMLID_170_" class="st1" d="M129.1,91.3c0,8.1-1.8,18.3-3.6,25.4c-3.2,12.9-7.5,31.7-7.5,31.7l23.1,87.6l-39,0"/>
				<g>
					<path id="XMLID_169_" class="st2" d="M97.8,244.4c-2,20-20,100.6-20,100.6H66.9l9.7-102.7"/>
				</g>
				<path id="XMLID_168_" class="st2" d="M130.8,86.5c0-10.8-5.4-14.8-18.4-14.5c-1,0-25.3,1.2-40.9,2c-8.3,0.4-16.6-1.4-24-5.2
					l-32.1-18c-2.6-1.5-4.3-4.3-4.3-7.3l0-6.4"/>
				<g id="XMLID_165_">
					<defs>
						<polygon id="XMLID_166_" points="90.8,30.1 114,30.1 128.4,47.7 136.8,47.7 136.8,3.7 90.8,3.7 						"/>
					</defs>
					<clipPath id="XMLID_2_">
						<use xlink:href="#XMLID_166_"  style="overflow:visible;"/>
					</clipPath>
					<circle id="XMLID_167_" class="st3" cx="113.9" cy="29.4" r="15.3"/>
				</g>
				<line id="XMLID_164_" class="st4" x1="110.7" y1="28.6" x2="98.9" y2="28.6"/>
				<path id="XMLID_163_" class="st4" d="M124.5,18.4l2.3-1.8c7.3-5.7,17.9-0.6,17.9,8.7l0,12c0,5.5,2.1,12.5,10,14.5
					c0,0-2,10.7-14.3,10.7c-8.1,0-12.2-6.2-12.2-9.5"/>
				<g id="XMLID_160_">
					<defs>
						<path id="XMLID_161_" d="M121.8,62.5L115,33.8c-8.9,0-15.5,0-20.4,0l2.8,38.8L121.8,62.5z"/>
					</defs>
					<clipPath id="XMLID_3_">
						<use xlink:href="#XMLID_161_"  style="overflow:visible;"/>
					</clipPath>
					<path id="XMLID_162_" class="st5" d="M117.1,63.7l-3.5-8.9c-9.3,2-14.6-5-14.6-13.3c0-2.9,0-13.7,0-17.1"/>
				</g>
			</g>
			<line id="XMLID_159_" class="st6" x1="63.1" y1="355.3" x2="79.8" y2="355.3"/>
			<g>
				<path id="XMLID_158_" class="st2" d="M111,244.4c2,20,20,100.6,20,100.6l10.8,0l-9.7-102.7"/>
			</g>
			<line id="XMLID_157_" class="st6" x1="145.7" y1="355.3" x2="129" y2="355.3"/>
		</g>
		<line class="st7" x1="21.7" y1="45.1" x2="21.7" y2="22.6"/>
		<path class="st8" d="M79.3,86.5l-20.1,19.8c-5.7,5.6-6,14.7-0.7,20.7l17.8,20.2"/>
	</g>
	<g>
		<polyline id="XMLID_154_" class="st1" points="314.9,118.5 307.7,106.5 279.5,119.6 258.5,107.3 		"/>
		<polygon id="XMLID_153_" class="st9" points="268.6,98.6 267,127.5 259.4,126 259.4,97.5 		"/>
		<line id="XMLID_152_" class="st10" x1="234" y1="168.8" x2="250.5" y2="168.8"/>
		<path id="XMLID_151_" class="st10" d="M229.2,231.8c0,38.5,0,114.2,0,114.2l12.7,0l16.6-184.7"/>
		<line id="XMLID_150_" class="st10" x1="224.9" y1="356.5" x2="249.6" y2="356.5"/>
		<path id="XMLID_149_" class="st1" d="M213.5,85.3c0-17,15.3-20.4,15.3-20.4s27.7,19.7,29.7,42.4l-1.9,52.9"/>
		<path id="XMLID_148_" class="st8" d="M217.4,213.2c6.5,0,11.8-5.3,11.8-11.8"/>
		<g id="XMLID_146_">
			<path id="XMLID_147_" class="st11" d="M285.7,28.6l-17.1-5.9l1-2.8c1.4-3.8-0.5-8.1-4.3-9.6c-3.6-1.5-7.6-3.1-8.6-3.4
				c-9.3-2.2-18.5,3.6-20.7,12.9"/>
		</g>
		
			<rect id="XMLID_145_" x="222.5" y="159.4" transform="matrix(-1 3.023382e-06 -3.023382e-06 -1 490.1691 325.3694)" class="st9" width="45.1" height="6.6"/>
		<polyline id="XMLID_144_" class="st1" points="229.2,86.7 229.1,192.9 217,192.9 		"/>
		<g id="XMLID_142_">
			<path id="XMLID_143_" class="st8" d="M241.5,66.1l5.8-11c8.8,4.1,15.7-1.6,17.6-9.9c0.7-2.9,1.7-7.5,2.5-10.9"/>
		</g>
		<line id="XMLID_141_" class="st12" x1="327.1" y1="78.2" x2="317.5" y2="101.4"/>
		<path class="st1" d="M221.9,56.5l-20.7,0c-4.8,0-8.7,3.9-8.7,8.7l0,10.2c0,4.8,3.9,8.7,8.7,8.7l0,0"/>
		<path class="st13" d="M213.5,150.8l-26.8-15l-18.9,33.6c-3.3,5.9-1.2,13.3,4.7,16.6l32.3,18.9"/>
		<line class="st14" x1="208.6" y1="168.6" x2="187.7" y2="156.8"/>
		<line class="st14" x1="208.6" y1="97" x2="196.1" y2="119.6"/>
		<circle class="st1" cx="243.2" cy="34.1" r="9"/>
	</g>
</g>
</svg>
