<?xml version="1.0" encoding="utf-8"?>
<!-- Generator: Adobe Illustrator 19.1.0, SVG Export Plug-In . SVG Version: 6.00 Build 0)  -->
<svg version="1.1" id="Layer_1" xmlns="http://www.w3.org/2000/svg" xmlns:xlink="http://www.w3.org/1999/xlink" x="0px" y="0px"
	 viewBox="0 0 435.7 254" style="enable-background:new 0 0 435.7 254;" xml:space="preserve">
<style type="text/css">
	.st0{clip-path:url(#SVGID_2_);}
	.st1{fill:#FFFFFF;}
	.st2{fill:none;stroke:#F69679;stroke-width:3;stroke-miterlimit:10;}
	.st3{fill:none;stroke:#6A817C;stroke-width:3;stroke-miterlimit:10;}
	.st4{fill:none;stroke:#17181B;stroke-width:3;stroke-linecap:square;stroke-miterlimit:10;}
	.st5{fill:none;stroke:#56C5D0;stroke-width:3;stroke-miterlimit:10;}
	.st6{fill:#FFFFFF;stroke:#56C5D0;stroke-width:3;stroke-miterlimit:10;}
	.st7{fill:none;stroke:#F68D70;stroke-width:3;stroke-linecap:square;stroke-miterlimit:10;}
	.st8{fill:none;stroke:#162532;stroke-width:3;stroke-linecap:round;stroke-linejoin:round;stroke-miterlimit:10;}
	.st9{fill:none;stroke:#231F20;stroke-width:3;stroke-miterlimit:10;}
	.st10{fill:none;stroke:#F68D70;stroke-width:3;stroke-miterlimit:10;}
	.st11{fill:none;stroke:#162532;stroke-width:3;stroke-miterlimit:10;}
	.st12{fill:none;stroke:#162532;stroke-width:3;stroke-linecap:square;stroke-miterlimit:10;}
	.st13{clip-path:url(#XMLID_2_);fill:none;stroke:#6A817C;stroke-width:3;stroke-miterlimit:10;}
	.st14{clip-path:url(#XMLID_3_);fill:none;stroke:#231F20;stroke-width:3;stroke-miterlimit:10;}
	.st15{fill:none;stroke:#17181B;stroke-width:3;stroke-miterlimit:10;}
	.st16{fill:none;stroke:#00B48D;stroke-width:3;stroke-miterlimit:10;}
	.st17{fill:#FFFFFF;stroke:#17181B;stroke-width:3;stroke-miterlimit:10;}
	.st18{fill:none;stroke:#00B288;stroke-width:3;stroke-miterlimit:10;}
	.st19{clip-path:url(#XMLID_4_);fill:#FFFFFF;stroke:#F68D70;stroke-width:3;stroke-miterlimit:10;}
	.st20{clip-path:url(#XMLID_5_);fill:#FFFFFF;stroke:#231F20;stroke-width:3;stroke-miterlimit:10;}
	.st21{clip-path:url(#XMLID_6_);fill:none;stroke:#00B48D;stroke-width:3;stroke-miterlimit:10;}
	.st22{clip-path:url(#XMLID_7_);fill:none;stroke:#F69679;stroke-width:3;stroke-miterlimit:10;}
	.st23{clip-path:url(#XMLID_8_);fill:none;stroke:#17181B;stroke-width:3;stroke-miterlimit:10;}
	.st24{fill:none;stroke:#6A817C;stroke-width:3;stroke-linecap:square;stroke-miterlimit:10;}
	.st25{fill:#FFFFFF;stroke:#6A817C;stroke-width:3;stroke-miterlimit:10;}
	.st26{fill:none;stroke:#67506C;stroke-width:3;stroke-miterlimit:10;}
</style>
<g>
	<defs>
		<rect id="SVGID_1_" x="0.3" y="-16.4" width="421.5" height="286.1"/>
	</defs>
	<clipPath id="SVGID_2_">
		<use xlink:href="#SVGID_1_"  style="overflow:visible;"/>
	</clipPath>
	<g class="st0">
		<g>
			
				<rect x="-190.6" y="152.7" transform="matrix(0.9848 -0.1735 0.1735 0.9848 -31.7488 -30.2559)" class="st1" width="3.4" height="27.6"/>
		</g>
		<g>
			<rect x="-92.3" y="136.5" class="st1" width="3.4" height="27.6"/>
		</g>
		<g>
			<g>
				<polyline id="XMLID_232_" class="st2" points="-13.4,114.6 -13.4,54.5 -60.8,54.5 -60.8,158.2 				"/>
				<polyline id="XMLID_231_" class="st3" points="-69.3,158.2 -69.3,86.3 -84,72.1 -98.1,86.2 -98.1,145 				"/>
				<line id="XMLID_230_" class="st4" x1="-111.1" y1="165.2" x2="-60.8" y2="165.2"/>
				<g>
					<g>
						<line id="XMLID_229_" class="st5" x1="-49.2" y1="66.7" x2="-45.1" y2="66.7"/>
						<line id="XMLID_228_" class="st5" x1="-49.2" y1="74.8" x2="-45.1" y2="74.8"/>
						<line id="XMLID_227_" class="st5" x1="-49.2" y1="82.9" x2="-45.1" y2="82.9"/>
					</g>
					<g>
						<line id="XMLID_226_" class="st5" x1="-39.2" y1="66.7" x2="-35.1" y2="66.7"/>
						<line id="XMLID_225_" class="st5" x1="-39.2" y1="74.8" x2="-35.1" y2="74.8"/>
						<line id="XMLID_224_" class="st5" x1="-39.2" y1="82.9" x2="-35.1" y2="82.9"/>
					</g>
					<g>
						<line id="XMLID_223_" class="st5" x1="-29.1" y1="66.7" x2="-25" y2="66.7"/>
						<line id="XMLID_222_" class="st5" x1="-29.1" y1="74.8" x2="-25" y2="74.8"/>
						<line id="XMLID_221_" class="st5" x1="-29.1" y1="82.9" x2="-25" y2="82.9"/>
					</g>
				</g>
				<g>
					<g>
						<line id="XMLID_220_" class="st5" x1="-49.2" y1="91.1" x2="-45.1" y2="91.1"/>
						<line id="XMLID_219_" class="st5" x1="-49.2" y1="99.2" x2="-45.1" y2="99.2"/>
						<line id="XMLID_218_" class="st5" x1="-49.2" y1="107.4" x2="-45.1" y2="107.4"/>
					</g>
					<g>
						<line id="XMLID_217_" class="st5" x1="-39.2" y1="91.1" x2="-35.1" y2="91.1"/>
						<line id="XMLID_216_" class="st5" x1="-39.2" y1="99.2" x2="-35.1" y2="99.2"/>
						<line id="XMLID_215_" class="st5" x1="-39.2" y1="107.4" x2="-35.1" y2="107.4"/>
					</g>
					<g>
						<line id="XMLID_214_" class="st5" x1="-29.1" y1="91.1" x2="-25" y2="91.1"/>
						<line id="XMLID_213_" class="st5" x1="-29.1" y1="99.2" x2="-25" y2="99.2"/>
						<line id="XMLID_212_" class="st5" x1="-29.1" y1="107.4" x2="-25" y2="107.4"/>
					</g>
				</g>
				<g>
					<g>
						<line id="XMLID_211_" class="st5" x1="-49.2" y1="115.8" x2="-45.1" y2="115.8"/>
						<line id="XMLID_210_" class="st5" x1="-49.2" y1="123.9" x2="-45.1" y2="123.9"/>
						<line id="XMLID_209_" class="st5" x1="-49.2" y1="132.1" x2="-45.1" y2="132.1"/>
					</g>
					<g>
						<line id="XMLID_208_" class="st5" x1="-39.2" y1="115.8" x2="-35.1" y2="115.8"/>
						<line id="XMLID_207_" class="st5" x1="-39.2" y1="123.9" x2="-35.1" y2="123.9"/>
						<line id="XMLID_206_" class="st5" x1="-39.2" y1="132.1" x2="-35.1" y2="132.1"/>
					</g>
					<g>
						<line id="XMLID_205_" class="st5" x1="-29.1" y1="115.8" x2="-25" y2="115.8"/>
						<line id="XMLID_204_" class="st5" x1="-29.1" y1="123.9" x2="-25" y2="123.9"/>
						<line id="XMLID_203_" class="st5" x1="-29.1" y1="132.1" x2="-25" y2="132.1"/>
					</g>
				</g>
			</g>
			<g>
				<g>
					<path class="st6" d="M67.6,141.6c0,0,16.6-16.6,16.7-16.7c3.8-3.8,3.8-10,0-13.8c-1.9-1.9-4.3-2.8-6.8-2.8l-12.8,0l-34,0
						l-16.2,0v6.8c0,8.6,3.4,16.4,9,22.1c0,0,32,24.3,32,25.5l5.6,42.7l13.5,0l-2-45.4v-2.1c0-3.1-1.2-5.8-3.2-7.9l-32.4-28.2"/>
					<line class="st5" x1="63.1" y1="123.3" x2="56.5" y2="131.4"/>
				</g>
				<line class="st7" x1="52" y1="94.8" x2="52" y2="100.5"/>
				<path class="st7" d="M14.5,100.5v-8.3c0-10.8,4.3-20.5,11.3-27.6l11.2-11.2l0,0c2.7-2.5,6.2-4,10.2-4"/>
				<circle class="st8" cx="143.9" cy="198.1" r="41.8"/>
				<g>
					<g>
						<g>
							<path class="st9" d="M73.3,78.8h25.1h6.8c7,0,12.7,5.7,12.7,12.7"/>
							<path class="st9" d="M119,91.3"/>
						</g>
					</g>
				</g>
				<path class="st7" d="M69,76L58.1,65.2c-3.8-3.8-9.9-3.8-13.7,0c-3.8,3.8-3.8,9.9,0,13.7l0,0l0,0l0,0l0,0l10.9,10.9"/>
				<g>
					<line class="st7" x1="112.6" y1="123.3" x2="143.9" y2="197.9"/>
					<line class="st7" x1="113.2" y1="145.4" x2="80.1" y2="178.5"/>
					<polyline class="st10" points="29.1,198.3 -7.8,198.3 37.1,153.4 					"/>
					<path class="st11" d="M26.5,174.3c4.7,6.8,7.5,15,7.5,23.9c0,23.1-18.7,41.8-41.8,41.8c-23.1,0-41.8-18.7-41.8-41.8
						s18.7-41.8,41.8-41.8c9.3,0,17.8,3,24.7,8.1"/>
					<polyline class="st7" points="77.5,150.4 110.2,117.7 110.2,94.2 					"/>
				</g>
				<rect x="77" y="172.4" class="st1" width="3.1" height="13.9"/>
				<line class="st10" x1="38.3" y1="198.3" x2="55.6" y2="198.3"/>
				<line class="st12" x1="62.1" y1="213.4" x2="74.6" y2="213.4"/>
				<polygon class="st1" points="49.1,129.5 39.2,121.1 45.1,117.7 42,119.5 51.8,127.4 				"/>
				<polyline class="st6" points="49,164.8 38.3,175.9 31.2,168.3 				"/>
				<g id="XMLID_200_">
					<defs>
						<polygon id="XMLID_201_" points="78.4,19.7 72.3,26.4 69.3,30 50.4,36 49.8,15.5 70.1,10.2 						"/>
					</defs>
					<clipPath id="XMLID_2_">
						<use xlink:href="#XMLID_201_"  style="overflow:visible;"/>
					</clipPath>
					<path id="XMLID_202_" class="st13" d="M65.1,39.1c-6.8,0-12.3-5.5-12.3-12.3c0-6.8,5.5-12.3,12.3-12.3c3.9,0,7.5,1.9,9.7,4.7
						c-2,2.1-3.5,4.6-10.2,5.5c0.1,2.2,0.6,4.9,1,7.8"/>
				</g>
				<g id="XMLID_197_">
					<defs>
						<path id="XMLID_198_" d="M58,49.7l7.2-20.4c5.1,0.7,12.6-4.6,14.3-7.2l1,27.6l-5.6,12.9L58,49.7z"/>
					</defs>
					<clipPath id="XMLID_3_">
						<use xlink:href="#XMLID_198_"  style="overflow:visible;"/>
					</clipPath>
					<path id="XMLID_199_" class="st14" d="M63,53.3l2.5-6.5c6.8,1.5,10.6-3.7,10.6-9.7c0-2.1,0-12.5,0-15"/>
				</g>
				<circle class="st7" cx="106.4" cy="91.5" r="3.8"/>
				<g>
					
						<rect x="41.2" y="88.1" transform="matrix(0.7122 0.702 -0.702 0.7122 77.4507 -8.6644)" class="st1" width="16.1" height="4.1"/>
				</g>
				<g>
					
						<rect x="109.6" y="114.4" transform="matrix(0.7071 0.7071 -0.7071 0.7071 119.0086 -43.161)" class="st1" width="4.1" height="15.4"/>
				</g>
			</g>
			<g>
				<polyline id="XMLID_196_" class="st5" points="-120.2,88.2 -124.8,80.5 -142.7,88.9 -157.4,79.7 				"/>
				<polygon id="XMLID_195_" class="st1" points="-149.7,75.5 -150.7,94 -155.5,93 -155.5,74.8 				"/>
				<line id="XMLID_194_" class="st15" x1="-171.7" y1="120.3" x2="-161.2" y2="120.3"/>
				<path id="XMLID_193_" class="st15" d="M-174.8,160.4c0,24.6,0,72.8,0,72.8h8.1l10.6-117.8"/>
				<line id="XMLID_192_" class="st15" x1="-177.6" y1="239.9" x2="-161.8" y2="239.9"/>
				<path id="XMLID_191_" class="st5" d="M-184.8,67c0-10.8,9.8-13,9.8-13s17.7,12.5,18.9,27l-1.2,33.7"/>
				<path id="XMLID_190_" class="st15" d="M-182.3,148.6c4.2,0,7.5-3.4,7.5-7.5"/>
				<g id="XMLID_188_">
					<path id="XMLID_189_" class="st16" d="M-138.8,30.9l-10.9-3.8l0.6-1.8c0.9-2.5-0.3-5.1-2.7-6.2c-2.3-1-4.8-2-5.5-2.1
						c-5.9-1.4-11.8,2.3-13.2,8.2"/>
				</g>
				<rect id="XMLID_187_" x="-179" y="114.3" class="st1" width="28.7" height="4.2"/>
				<polyline id="XMLID_186_" class="st5" points="-174.8,68 -174.9,135.7 -182.6,135.7 				"/>
				<g id="XMLID_184_">
					<path id="XMLID_185_" class="st17" d="M-167,54.8l3.7-7c5.6,2.6,10-1,11.3-6.3c0.4-1.8,1.1-4.8,1.6-6.9"/>
				</g>
				<line id="XMLID_183_" class="st17" x1="-112.4" y1="62.5" x2="-118.5" y2="77.3"/>
				<path class="st5" d="M-179.5,48.7h-13.2c-3.1,0-5.6,2.5-5.6,5.6v6.5c0,3.1,2.5,5.6,5.6,5.6h0"/>
				<path class="st7" d="M-184.8,108.8l-17.1-9.6l-12,21.4c-2.1,3.7-0.8,8.5,3,10.6l20.6,12.1"/>
				<line class="st7" x1="-188" y1="120.1" x2="-201.3" y2="112.6"/>
				<line class="st7" x1="-188" y1="74.5" x2="-195.9" y2="88.9"/>
				<circle class="st5" cx="-165.9" cy="34.4" r="5.8"/>
			</g>
			<g>
				<g id="_x3C_Group_x3E__3_">
					<g>
						<path id="XMLID_182_" class="st18" d="M341.6,55.6"/>
						<path id="XMLID_181_" class="st18" d="M345.6,65.2"/>
						<g id="XMLID_179_">
							<polyline id="XMLID_180_" class="st5" points="350.7,64.1 360.5,161.6 335,161.6 							"/>
						</g>
						<path id="XMLID_178_" class="st5" d="M325.6,66.5c0,5.3,1.2,12,2.3,16.7c2.1,8.5,4.9,20.8,4.9,20.8l-15.2,57.5h25.6"/>
						<g>
							<path id="XMLID_177_" class="st9" d="M346.2,167.1c1.3,13.1,13.1,66.1,13.1,66.1h7.1l-6.4-67.4"/>
						</g>
						<path id="XMLID_176_" class="st9" d="M324.5,63.4c0-7.1,3.6-9.7,12.1-9.6c0.7,0,16.6,0.8,26.8,1.3c5.5,0.3,10.9-0.9,15.7-3.4
							L400.2,40c1.7-1,2.8-2.8,2.8-4.8V31"/>
						<g id="XMLID_173_">
							<defs>
								<polygon id="XMLID_174_" points="350.7,26.4 335.6,26.4 326.1,37.9 320.5,37.9 320.5,9.1 350.7,9.1 								"/>
							</defs>
							<clipPath id="XMLID_4_">
								<use xlink:href="#XMLID_174_"  style="overflow:visible;"/>
							</clipPath>
							<circle id="XMLID_175_" class="st19" cx="335.6" cy="25.9" r="10"/>
						</g>
						<line id="XMLID_172_" class="st10" x1="337.2" y1="24.7" x2="345" y2="24.7"/>
						<path id="XMLID_171_" class="st10" d="M328.6,18.7l-1.5-1.2c-4.8-3.8-11.8-0.4-11.8,5.7v7.9c0,3.6-1.4,8.2-6.5,9.5
							c0,0,1.3,7,9.4,7c5.3,0,8-4.1,8-6.2"/>
						<g id="XMLID_168_">
							<defs>
								<path id="XMLID_169_" d="M330.4,47.7l4.5-18.9c5.8,0,10.2,0,13.4,0l-1.8,25.5L330.4,47.7z"/>
							</defs>
							<clipPath id="XMLID_5_">
								<use xlink:href="#XMLID_169_"  style="overflow:visible;"/>
							</clipPath>
							<path id="XMLID_170_" class="st20" d="M333.5,48.4l2.3-5.8c6.1,1.3,9.6-3.3,9.6-8.7c0-1.9,0-9,0-11.2"/>
						</g>
					</g>
					<line id="XMLID_167_" class="st9" x1="368.9" y1="239.9" x2="358" y2="239.9"/>
					<g>
						<path id="XMLID_166_" class="st9" d="M337.5,167.1c-1.3,13.1-13.1,66.1-13.1,66.1h-7.1l6.4-67.4"/>
					</g>
					<line id="XMLID_165_" class="st9" x1="314.7" y1="239.9" x2="325.6" y2="239.9"/>
				</g>
				<line class="st5" x1="396.1" y1="36.2" x2="396.1" y2="21.4"/>
				<path class="st17" d="M358.3,63.4l13.2,13c3.8,3.7,4,9.7,0.5,13.6l-11.7,13.2"/>
			</g>
			<g>
				<g>
					<line id="XMLID_164_" class="st15" x1="-233" y1="235.4" x2="-223.2" y2="228.8"/>
					<path id="XMLID_163_" class="st18" d="M-273,60.8"/>
					<path id="XMLID_162_" class="st18" d="M-277.1,70.5"/>
					<path id="XMLID_161_" class="st5" d="M-270,181.2l34.9,47.2l6-4.1c-8.3-15-16.5-34.9-30.8-47.4c0,0,6.4-20.7,3.6-37"/>
					<path id="XMLID_160_" class="st5" d="M-271,140.6c-1.3,13.3-19.9,92.5-19.9,92.5h-7.2l9.5-93.2"/>
					<g id="XMLID_157_">
						<defs>
							<polyline id="XMLID_158_" points="-278.4,73 -283.5,90.6 -294,75.8 -286.9,71.9 -276.2,71.9 							"/>
						</defs>
						<clipPath id="XMLID_6_">
							<use xlink:href="#XMLID_158_"  style="overflow:visible;"/>
						</clipPath>
						<path id="XMLID_159_" class="st21" d="M-277.8,64c-3.7,5.1-6.9,9.2-6.3,14c0.4,3.7,3.3,7.5,4.8,9.2"/>
					</g>
					<path id="XMLID_156_" class="st15" d="M-318,105.3c0.3-2.6,2-5,4.6-6.1l25.3,1.9c3,0.2,5.9-1.6,6.9-4.5
						c2.8-7.7,8.1-22.4,10.5-28.8c1.3-3.6,3-5.8,4.7-7.1c3.8-3,9.5-0.6,10.1,4.2c0.1,1.1,0.2,2.4,0.2,3.8"/>
					<g id="XMLID_153_">
						<defs>
							<polygon id="XMLID_154_" points="-282.3,31.2 -266.9,31.2 -257.3,42.9 -251.7,42.9 -251.7,13.7 -282.3,13.7 							"/>
						</defs>
						<clipPath id="XMLID_7_">
							<use xlink:href="#XMLID_154_"  style="overflow:visible;"/>
						</clipPath>
						<circle id="XMLID_155_" class="st22" cx="-266.9" cy="30.8" r="10.1"/>
					</g>
					<line id="XMLID_152_" class="st10" x1="-268.6" y1="29.5" x2="-276.5" y2="29.5"/>
					<g id="XMLID_149_">
						<defs>
							<path id="XMLID_150_" d="M-261.7,52.8l-4.5-19.1c-5.9,0-10.3,0-13.5,0l1.8,25.8L-261.7,52.8z"/>
						</defs>
						<clipPath id="XMLID_8_">
							<use xlink:href="#XMLID_150_"  style="overflow:visible;"/>
						</clipPath>
						<path id="XMLID_151_" class="st23" d="M-264.8,53.5l-2.3-5.9c-6.2,1.3-9.7-3.3-9.7-8.8c0-1.9,0-9.1,0-11.3"/>
					</g>
					<line id="XMLID_148_" class="st15" x1="-300.7" y1="239.9" x2="-289.6" y2="239.9"/>
					<path class="st2" d="M-254.3,24.8l2-2c2-2,2-5.3,0-7.3v0c-2-2-5.3-2-7.3,0l-2,2"/>
					<path class="st3" d="M-246.8,108.6l-29.5,0c-3.3,0-6,2.7-6,6v19h41.5v-19C-240.7,111.3-243.4,108.6-246.8,108.6z"/>
					<polyline class="st24" points="-267.9,115.3 -267.9,119.6 -255.1,119.6 -255.1,115.3 					"/>
					<path class="st3" d="M-247.5,101.5V70.4c0-6.2-2.4-12.1-6.8-16.4v0"/>
				</g>
				<g>
					<g>
						<line class="st3" x1="-425.7" y1="223.9" x2="-392" y2="190.1"/>
						<line class="st3" x1="-358.2" y1="223.9" x2="-392" y2="190.1"/>
						<circle class="st17" cx="-425.7" cy="223.9" r="16.1"/>
						<circle class="st25" cx="-425.7" cy="223.9" r="4.5"/>
						<circle class="st17" cx="-358.2" cy="223.9" r="16.1"/>
						<circle class="st25" cx="-358.2" cy="223.9" r="4.5"/>
					</g>
					<g>
						<path class="st5" d="M-396.2,152.8V106c-25.8,0-46.8,21-46.8,46.8"/>
					</g>
					<path class="st3" d="M-356.6,152.8l32.2-32.2c5.3-5.3,12.4-8.2,19.8-8.2"/>
					<path class="st25" d="M-350.7,191.9l-82.5,0c-5.4,0-9.8-4.4-9.8-9.8V158l102.2,0v24.1C-340.9,187.5-345.3,191.9-350.7,191.9z"
						/>
					<line class="st5" x1="-406.9" y1="115.2" x2="-406.9" y2="152.8"/>
				</g>
			</g>
			<g>
				<g id="XMLID_136_">
					<polyline id="XMLID_147_" class="st3" points="290.9,156.9 290.9,80.6 267.2,63.4 267.2,108.3 					"/>
					<polyline id="XMLID_146_" class="st16" points="238.3,158.2 238.3,114.6 277.5,114.6 277.5,158.2 					"/>
					<g>
						<g>
							<line id="XMLID_145_" class="st5" x1="245.8" y1="123.6" x2="249.9" y2="123.6"/>
							<line id="XMLID_144_" class="st5" x1="245.8" y1="131.8" x2="249.9" y2="131.8"/>
							<line id="XMLID_143_" class="st5" x1="245.8" y1="139.9" x2="249.9" y2="139.9"/>
						</g>
						<g>
							<line id="XMLID_142_" class="st5" x1="255.9" y1="123.6" x2="260" y2="123.6"/>
							<line id="XMLID_141_" class="st5" x1="255.9" y1="131.8" x2="260" y2="131.8"/>
							<line id="XMLID_140_" class="st5" x1="255.9" y1="139.9" x2="260" y2="139.9"/>
						</g>
						<g>
							<line id="XMLID_139_" class="st5" x1="265.9" y1="123.6" x2="270" y2="123.6"/>
							<line id="XMLID_138_" class="st5" x1="265.9" y1="131.8" x2="270" y2="131.8"/>
							<line id="XMLID_137_" class="st5" x1="265.9" y1="139.9" x2="270" y2="139.9"/>
						</g>
					</g>
				</g>
				<line id="XMLID_135_" class="st15" x1="192" y1="165.2" x2="300.6" y2="165.2"/>
				<polyline class="st2" points="255.9,91.1 203.6,91.1 203.6,158.2 				"/>
				<g>
					<line id="XMLID_134_" class="st26" x1="211.1" y1="99.6" x2="227.2" y2="99.6"/>
					<line id="XMLID_133_" class="st26" x1="211.1" y1="107.8" x2="227.2" y2="107.8"/>
					<line id="XMLID_132_" class="st26" x1="211.1" y1="115.9" x2="227.2" y2="115.9"/>
				</g>
			</g>
		</g>
	</g>
</g>
</svg>
