<?xml version="1.0" encoding="utf-8"?>
<!-- Generator: Adobe Illustrator 20.0.0, SVG Export Plug-In . SVG Version: 6.00 Build 0)  -->
<svg version="1.1" id="Layer_1" xmlns="http://www.w3.org/2000/svg" xmlns:xlink="http://www.w3.org/1999/xlink" x="0px" y="0px"
	 viewBox="0 0 956.7 274.7" style="enable-background:new 0 0 956.7 274.7;" xml:space="preserve">
<style type="text/css">
	.st0{fill:none;stroke:#F69679;stroke-width:4.5;stroke-miterlimit:10;}
	.st1{fill:none;stroke:#6A817C;stroke-width:3;stroke-miterlimit:10;}
	.st2{fill:none;stroke:#17181B;stroke-width:3;stroke-linecap:square;stroke-miterlimit:10;}
	.st3{fill:none;stroke:#56C5D0;stroke-width:3;stroke-miterlimit:10;}
	.st4{fill:#FFFFFF;stroke:#56C5D0;stroke-width:4.5;stroke-miterlimit:10;}
	.st5{fill:none;stroke:#56C5D0;stroke-width:4.5;stroke-miterlimit:10;}
	.st6{fill:none;stroke:#F68D70;stroke-width:4.5;stroke-linecap:square;stroke-miterlimit:10;}
	.st7{fill:none;stroke:#162532;stroke-width:4.5;stroke-linecap:round;stroke-linejoin:round;stroke-miterlimit:10;}
	.st8{fill:none;stroke:#231F20;stroke-width:3;stroke-miterlimit:10;}
	.st9{fill:none;stroke:#F68D70;stroke-width:3;stroke-linecap:square;stroke-miterlimit:10;}
	.st10{fill:none;stroke:#F68D70;stroke-width:3;stroke-miterlimit:10;}
	.st11{fill:none;stroke:#162532;stroke-width:4.5;stroke-miterlimit:10;}
	.st12{fill:#FFFFFF;}
	.st13{fill:none;stroke:#162532;stroke-width:4.5;stroke-linecap:square;stroke-miterlimit:10;}
	.st14{clip-path:url(#XMLID_24_);fill:none;stroke:#6A817C;stroke-width:3;stroke-miterlimit:10;}
	.st15{clip-path:url(#XMLID_25_);fill:none;stroke:#231F20;stroke-width:3;stroke-miterlimit:10;}
	.st16{fill:none;stroke:#17181B;stroke-width:4.5;stroke-miterlimit:10;}
	.st17{fill:none;stroke:#17181B;stroke-width:3;stroke-miterlimit:10;}
	.st18{fill:none;stroke:#00B48D;stroke-width:4.5;stroke-miterlimit:10;}
	.st19{fill:#FFFFFF;stroke:#17181B;stroke-width:3;stroke-miterlimit:10;}
	.st20{fill:none;stroke:#00B288;stroke-width:3;stroke-miterlimit:10;}
	.st21{clip-path:url(#XMLID_26_);fill:#FFFFFF;stroke:#F68D70;stroke-width:3;stroke-miterlimit:10;}
	.st22{clip-path:url(#XMLID_27_);fill:#FFFFFF;stroke:#231F20;stroke-width:3;stroke-miterlimit:10;}
	.st23{fill:none;stroke:#231F20;stroke-width:4.5;stroke-miterlimit:10;}
	.st24{clip-path:url(#XMLID_28_);fill:none;stroke:#00B48D;stroke-width:3;stroke-miterlimit:10;}
	.st25{clip-path:url(#XMLID_29_);fill:none;stroke:#F69679;stroke-width:3;stroke-miterlimit:10;}
	.st26{clip-path:url(#XMLID_30_);fill:none;stroke:#17181B;stroke-width:3;stroke-miterlimit:10;}
	.st27{fill:none;stroke:#F69679;stroke-width:3;stroke-miterlimit:10;}
	.st28{fill:none;stroke:#6A817C;stroke-width:4.5;stroke-miterlimit:10;}
	.st29{fill:none;stroke:#6A817C;stroke-width:3;stroke-linecap:square;stroke-miterlimit:10;}
	.st30{fill:#FFFFFF;stroke:#17181B;stroke-width:4.5;stroke-miterlimit:10;}
	.st31{fill:#FFFFFF;stroke:#6A817C;stroke-width:3;stroke-miterlimit:10;}
	.st32{fill:#FFFFFF;stroke:#6A817C;stroke-width:4.5;stroke-miterlimit:10;}
	.st33{fill:none;stroke:#00B48D;stroke-width:3;stroke-miterlimit:10;}
	.st34{fill:none;stroke:#67506C;stroke-width:3;stroke-miterlimit:10;}
</style>
<g>
	<g>
		<polyline id="XMLID_281_" class="st0" points="499.4,118.8 499.4,55.5 449.6,55.5 449.6,164.8 		"/>
		<polyline id="XMLID_280_" class="st1" points="440.5,164.8 440.5,89 425.1,74 410.2,88.9 410.2,150.8 		"/>
		<line id="XMLID_279_" class="st2" x1="396.5" y1="172.1" x2="449.5" y2="172.1"/>
		<g>
			<g>
				<line id="XMLID_278_" class="st3" x1="461.8" y1="68.3" x2="466.1" y2="68.3"/>
				<line id="XMLID_277_" class="st3" x1="461.8" y1="76.9" x2="466.1" y2="76.9"/>
				<line id="XMLID_276_" class="st3" x1="461.8" y1="85.5" x2="466.1" y2="85.5"/>
			</g>
			<g>
				<line id="XMLID_275_" class="st3" x1="472.3" y1="68.3" x2="476.7" y2="68.3"/>
				<line id="XMLID_274_" class="st3" x1="472.3" y1="76.9" x2="476.7" y2="76.9"/>
				<line id="XMLID_273_" class="st3" x1="472.3" y1="85.5" x2="476.7" y2="85.5"/>
			</g>
			<g>
				<line id="XMLID_272_" class="st3" x1="482.9" y1="68.3" x2="487.2" y2="68.3"/>
				<line id="XMLID_271_" class="st3" x1="482.9" y1="76.9" x2="487.2" y2="76.9"/>
				<line id="XMLID_270_" class="st3" x1="482.9" y1="85.5" x2="487.2" y2="85.5"/>
			</g>
		</g>
		<g>
			<g>
				<line id="XMLID_269_" class="st3" x1="461.8" y1="94" x2="466.1" y2="94"/>
				<line id="XMLID_268_" class="st3" x1="461.8" y1="102.6" x2="466.1" y2="102.6"/>
				<line id="XMLID_267_" class="st3" x1="461.8" y1="111.2" x2="466.1" y2="111.2"/>
			</g>
			<g>
				<line id="XMLID_266_" class="st3" x1="472.3" y1="94" x2="476.7" y2="94"/>
				<line id="XMLID_265_" class="st3" x1="472.3" y1="102.6" x2="476.7" y2="102.6"/>
				<line id="XMLID_264_" class="st3" x1="472.3" y1="111.2" x2="476.7" y2="111.2"/>
			</g>
			<g>
				<line id="XMLID_263_" class="st3" x1="482.9" y1="94" x2="487.2" y2="94"/>
				<line id="XMLID_262_" class="st3" x1="482.9" y1="102.6" x2="487.2" y2="102.6"/>
				<line id="XMLID_261_" class="st3" x1="482.9" y1="111.2" x2="487.2" y2="111.2"/>
			</g>
		</g>
		<g>
			<g>
				<line id="XMLID_260_" class="st3" x1="461.8" y1="120.1" x2="466.1" y2="120.1"/>
				<line id="XMLID_259_" class="st3" x1="461.8" y1="128.6" x2="466.1" y2="128.6"/>
				<line id="XMLID_258_" class="st3" x1="461.8" y1="137.2" x2="466.1" y2="137.2"/>
			</g>
			<g>
				<line id="XMLID_257_" class="st3" x1="472.3" y1="120.1" x2="476.7" y2="120.1"/>
				<line id="XMLID_256_" class="st3" x1="472.3" y1="128.6" x2="476.7" y2="128.6"/>
				<line id="XMLID_255_" class="st3" x1="472.3" y1="137.2" x2="476.7" y2="137.2"/>
			</g>
			<g>
				<line id="XMLID_254_" class="st3" x1="482.9" y1="120.1" x2="487.2" y2="120.1"/>
				<line id="XMLID_253_" class="st3" x1="482.9" y1="128.6" x2="487.2" y2="128.6"/>
				<line id="XMLID_252_" class="st3" x1="482.9" y1="137.2" x2="487.2" y2="137.2"/>
			</g>
		</g>
	</g>
	<g>
		<g>
			<path class="st4" d="M584.9,147.2c0,0,17.5-17.5,17.6-17.6c4-4,4-10.5,0-14.5c-2-2-4.5-3-7.1-3l-13.5,0H546l-17.1,0v7.1
				c0,9.1,3.6,17.3,9.5,23.3c0,0,33.7,25.6,33.7,26.9l5.9,45h14.2l-2.1-47.8v-2.2c0-3.2-1.3-6.2-3.4-8.3l-34.2-29.7"/>
			<line class="st5" x1="580.1" y1="128" x2="573.1" y2="136.5"/>
		</g>
		<line class="st6" x1="568.4" y1="98" x2="568.4" y2="104"/>
		<path class="st6" d="M528.9,104v-8.7c0-11.4,4.6-21.6,11.9-29.1l11.8-11.8l0,0c2.8-2.6,6.6-4.3,10.7-4.3"/>
		<circle class="st7" cx="665.3" cy="206.8" r="44.1"/>
		<g>
			<g>
				<g>
					<path class="st8" d="M590.8,81h26.4l7.2,0c7.4,0,13.4,6,13.4,13.4"/>
					<path class="st8" d="M639,94.2"/>
				</g>
			</g>
		</g>
		<path class="st6" d="M586.3,78.2l-11.5-11.5c-4-4-10.4-4-14.4,0c-4,4-4,10.4,0,14.4l0,0l0,0l0,0l0,0l11.5,11.5"/>
		<g>
			<line class="st9" x1="632.2" y1="128" x2="665.3" y2="206.6"/>
			<line class="st9" x1="632.9" y1="151.3" x2="598" y2="186.2"/>
			<polyline class="st10" points="544.2,207 505.4,207 552.6,159.7 			"/>
			<path class="st11" d="M541.6,181.7c5,7.1,7.9,15.8,7.9,25.2c0,24.3-19.7,44.1-44.1,44.1c-24.3,0-44.1-19.7-44.1-44.1
				s19.7-44.1,44.1-44.1c9.8,0,18.8,3.2,26.1,8.5"/>
			<polyline class="st9" points="595.2,156.5 629.7,122 629.7,97.4 			"/>
		</g>
		<rect x="594.7" y="179.7" class="st12" width="3.3" height="14.6"/>
		<line class="st10" x1="554" y1="207" x2="572.2" y2="207"/>
		<line class="st13" x1="579.1" y1="222.9" x2="592.2" y2="222.9"/>
		<polygon class="st12" points="565.3,134.6 554.9,125.6 561.2,122 557.9,124 568.2,132.3 		"/>
		<polyline class="st4" points="565.3,171.7 554,183.4 546.4,175.4 		"/>
		<g id="XMLID_249_">
			<defs>
				<polygon id="XMLID_250_" points="596.2,18.8 589.8,25.8 586.7,29.6 566.7,35.9 566,14.4 587.5,8.8 				"/>
			</defs>
			<clipPath id="XMLID_24_">
				<use xlink:href="#XMLID_250_"  style="overflow:visible;"/>
			</clipPath>
			<path id="XMLID_251_" class="st14" d="M582.2,39.3c-7.1,0-12.9-5.8-12.9-12.9c0-7.1,5.8-12.9,12.9-12.9c4.2,0,7.9,2,10.2,5
				c-2.1,2.2-3.7,4.8-10.8,5.8c0.1,2.3,0.7,5.2,1.1,8.2"/>
		</g>
		<g id="XMLID_246_">
			<defs>
				<path id="XMLID_247_" d="M574.7,50.4l7.6-21.5c5.4,0.7,13.2-4.9,15.1-7.6l1.1,29.1L592.5,64L574.7,50.4z"/>
			</defs>
			<clipPath id="XMLID_25_">
				<use xlink:href="#XMLID_247_"  style="overflow:visible;"/>
			</clipPath>
			<path id="XMLID_248_" class="st15" d="M580,54.2l2.7-6.8c7.1,1.5,11.2-3.9,11.2-10.2c0-2.2,0-13.2,0-15.8"/>
		</g>
		<circle class="st9" cx="625.7" cy="94.4" r="4"/>
		<g>
			
				<rect x="563.4" y="84.5" transform="matrix(0.702 -0.7122 0.7122 0.702 102.2873 430.4844)" class="st12" width="4.3" height="17"/>
		</g>
		<g>
			
				<rect x="623.1" y="124.5" transform="matrix(0.7071 -0.7071 0.7071 0.7071 95.2916 483.4386)" class="st12" width="16.2" height="4.3"/>
		</g>
	</g>
	<g>
		<polyline id="XMLID_245_" class="st5" points="387,91 382.1,82.9 363.2,91.8 347.7,82.1 		"/>
		<polygon id="XMLID_244_" class="st12" points="355.8,77.6 354.8,97.1 349.7,96.1 349.7,76.9 		"/>
		<line id="XMLID_243_" class="st16" x1="332.7" y1="124.8" x2="343.7" y2="124.8"/>
		<path id="XMLID_242_" class="st16" d="M329.4,167.1c0,25.9,0,76.7,0,76.7l8.5,0l11.1-124.1"/>
		<line id="XMLID_241_" class="st16" x1="326.5" y1="250.9" x2="343.1" y2="250.9"/>
		<path id="XMLID_240_" class="st5" d="M318.8,68.7c0-11.4,10.3-13.7,10.3-13.7s18.6,13.2,19.9,28.5l-1.3,35.6"/>
		<path id="XMLID_239_" class="st17" d="M321.4,154.6c4.4,0,7.9-3.6,7.9-7.9"/>
		<g id="XMLID_237_">
			<path id="XMLID_238_" class="st18" d="M367.3,30.6l-11.5-4l0.7-1.9c0.9-2.6-0.4-5.4-2.9-6.5c-2.4-1-5.1-2.1-5.8-2.3
				c-6.2-1.4-12.4,2.4-13.9,8.6"/>
		</g>
		
			<rect id="XMLID_236_" x="324.9" y="118.5" transform="matrix(-1 5.191185e-07 -5.191185e-07 -1 680.1469 241.3961)" class="st12" width="30.3" height="4.5"/>
		<polyline id="XMLID_235_" class="st5" points="329.4,69.7 329.3,141 321.2,141 		"/>
		<g id="XMLID_233_">
			<path id="XMLID_234_" class="st19" d="M337.6,55.8l3.9-7.4c5.9,2.8,10.6-1.1,11.9-6.7c0.4-1.9,1.2-5,1.7-7.3"/>
		</g>
		<line id="XMLID_232_" class="st19" x1="395.2" y1="63.9" x2="388.7" y2="79.5"/>
		<path class="st5" d="M324.5,49.4l-13.9,0c-3.2,0-5.9,2.6-5.9,5.9v6.9c0,3.2,2.6,5.9,5.9,5.9l0,0"/>
		<path class="st6" d="M318.8,112.7l-18-10.1l-12.7,22.6c-2.2,3.9-0.8,8.9,3.1,11.2L313,149"/>
		<line class="st9" x1="315.5" y1="124.6" x2="301.5" y2="116.8"/>
		<line class="st9" x1="315.5" y1="76.6" x2="307.2" y2="91.8"/>
		<circle class="st5" cx="338.8" cy="34.3" r="6.1"/>
	</g>
	<g>
		<g id="_x3C_Group_x3E__2_">
			<g>
				<path id="XMLID_231_" class="st20" d="M873.5,56.7"/>
				<path id="XMLID_230_" class="st20" d="M877.8,66.8"/>
				<g id="XMLID_228_">
					<polyline id="XMLID_229_" class="st5" points="883.2,65.6 893.5,168.3 866.6,168.3 					"/>
				</g>
				<path id="XMLID_227_" class="st5" d="M856.7,68.2c0,5.6,1.2,12.7,2.5,17.6c2.2,8.9,5.2,21.9,5.2,21.9l-16,60.6h27"/>
				<g>
					<path id="XMLID_226_" class="st8" d="M878.4,174.2c1.4,13.8,13.8,69.6,13.8,69.6l7.5,0l-6.7-71.1"/>
				</g>
				<path id="XMLID_225_" class="st8" d="M855.6,64.9c0-7.4,3.8-10.3,12.7-10.1c0.7,0,17.5,0.9,28.3,1.4c5.7,0.3,11.5-1,16.6-3.6
					l22.2-12.5c1.8-1,2.9-2.9,2.9-5v-4.4"/>
				<g id="XMLID_222_">
					<defs>
						<polygon id="XMLID_223_" points="883.2,25.8 867.2,25.8 857.2,38 851.4,38 851.4,7.6 883.2,7.6 						"/>
					</defs>
					<clipPath id="XMLID_26_">
						<use xlink:href="#XMLID_223_"  style="overflow:visible;"/>
					</clipPath>
					<circle id="XMLID_224_" class="st21" cx="867.2" cy="25.4" r="10.6"/>
				</g>
				<line id="XMLID_221_" class="st10" x1="869" y1="24" x2="877.2" y2="24"/>
				<path id="XMLID_220_" class="st10" d="M859.9,17.8l-1.6-1.3c-5-4-12.4-0.4-12.4,6v8.3c0,3.8-1.5,8.6-6.9,10.1
					c0,0,1.4,7.4,9.9,7.4c5.6,0,8.5-4.3,8.5-6.6"/>
				<g id="XMLID_217_">
					<defs>
						<path id="XMLID_218_" d="M861.8,48.3l4.7-19.9c6.2,0,10.7,0,14.1,0l-1.9,26.9L861.8,48.3z"/>
					</defs>
					<clipPath id="XMLID_27_">
						<use xlink:href="#XMLID_218_"  style="overflow:visible;"/>
					</clipPath>
					<path id="XMLID_219_" class="st22" d="M865,49.1l2.4-6.1c6.4,1.4,10.1-3.5,10.1-9.2c0-2,0-9.5,0-11.8"/>
				</g>
			</g>
			<line id="XMLID_216_" class="st23" x1="902.4" y1="250.9" x2="890.8" y2="250.9"/>
			<g>
				<path id="XMLID_215_" class="st8" d="M869.2,174.2c-1.4,13.8-13.8,69.6-13.8,69.6h-7.5l6.7-71.1"/>
			</g>
			<line id="XMLID_214_" class="st23" x1="845.2" y1="250.9" x2="856.8" y2="250.9"/>
		</g>
		<line class="st3" x1="931" y1="36.2" x2="931" y2="20.6"/>
		<path class="st19" d="M891.2,64.9l13.9,13.7c4,3.9,4.2,10.2,0.5,14.3l-12.3,14"/>
	</g>
	<g>
		<g>
			<line id="XMLID_213_" class="st16" x1="268.1" y1="246.2" x2="278.4" y2="239.1"/>
			<path id="XMLID_212_" class="st20" d="M225.9,62.1"/>
			<path id="XMLID_211_" class="st20" d="M221.6,72.4"/>
			<path id="XMLID_210_" class="st5" d="M229.1,189l36.7,49.8l6.3-4.3c-8.7-15.8-17.4-36.8-32.4-49.9c0,0,6.8-21.8,3.8-39"/>
			<path id="XMLID_209_" class="st5" d="M228,146.3c-1.4,14-21,97.5-21,97.5h-7.6l10.1-98.2"/>
			<g id="XMLID_206_">
				<defs>
					<polyline id="XMLID_207_" points="220.2,75 214.9,93.5 203.7,77.9 211.2,73.8 222.5,73.8 					"/>
				</defs>
				<clipPath id="XMLID_28_">
					<use xlink:href="#XMLID_207_"  style="overflow:visible;"/>
				</clipPath>
				<path id="XMLID_208_" class="st24" d="M220.8,65.5c-3.9,5.4-7.2,9.7-6.7,14.8c0.5,3.9,3.5,7.9,5.1,9.7"/>
			</g>
			<path id="XMLID_205_" class="st17" d="M178.5,109.1c0.3-2.8,2.1-5.3,4.8-6.5l26.7,2c3.2,0.2,6.2-1.7,7.3-4.7
				c2.9-8.1,8.5-23.6,11-30.4c1.4-3.8,3.2-6.1,5-7.5c4-3.2,10-0.7,10.7,4.4c0.2,1.1,0.2,2.5,0.2,4"/>
			<g id="XMLID_22_">
				<defs>
					<polygon id="XMLID_203_" points="216.1,30.9 232.3,30.9 242.4,43.3 248.3,43.3 248.3,12.5 216.1,12.5 					"/>
				</defs>
				<clipPath id="XMLID_29_">
					<use xlink:href="#XMLID_203_"  style="overflow:visible;"/>
				</clipPath>
				<circle id="XMLID_204_" class="st25" cx="232.3" cy="30.5" r="10.7"/>
			</g>
			<line id="XMLID_21_" class="st10" x1="230.5" y1="29.1" x2="222.3" y2="29.1"/>
			<g id="XMLID_18_">
				<defs>
					<path id="XMLID_19_" d="M237.8,53.6l-4.8-20.1c-6.2,0-10.8,0-14.3,0l1.9,27.2L237.8,53.6z"/>
				</defs>
				<clipPath id="XMLID_30_">
					<use xlink:href="#XMLID_19_"  style="overflow:visible;"/>
				</clipPath>
				<path id="XMLID_20_" class="st26" d="M234.6,54.4l-2.4-6.2c-6.5,1.4-10.2-3.5-10.2-9.3c0-2,0-9.6,0-11.9"/>
			</g>
			<line id="XMLID_17_" class="st16" x1="196.8" y1="250.9" x2="208.4" y2="250.9"/>
			<path class="st27" d="M245.6,24.2l2.1-2.1c2.1-2.1,2.1-5.6,0-7.7v0c-2.1-2.1-5.6-2.1-7.7,0l-2.1,2.1"/>
			<path class="st28" d="M251,112.5l-25.9,0c-4.9,0-8.9,4-8.9,8.9v17.4l43.8,0v-17.4C259.9,116.4,255.9,112.5,251,112.5z"/>
			<polyline class="st29" points="231.3,119.5 231.3,124.1 244.7,124.1 244.7,119.5 			"/>
			<path class="st28" d="M252.8,105V72.2c0-6.5-2.6-12.7-7.2-17.3l0,0"/>
		</g>
		<g>
			<g>
				<line class="st1" x1="64.9" y1="234" x2="100.6" y2="198.4"/>
				<line class="st1" x1="136.2" y1="234" x2="100.6" y2="198.4"/>
				<circle class="st30" cx="64.9" cy="234" r="16.9"/>
				<circle class="st31" cx="64.9" cy="234" r="4.8"/>
				<circle class="st30" cx="136.2" cy="234" r="16.9"/>
				<circle class="st31" cx="136.2" cy="234" r="4.8"/>
			</g>
			<g>
				<path class="st5" d="M96,159v-49.3c-27.2,0-49.3,22.1-49.3,49.3"/>
			</g>
			<path class="st1" d="M137.8,159l34-34c5.5-5.5,13.1-8.7,20.9-8.7"/>
			<path class="st32" d="M130.7,200.3l-60.2,0c-13.1,0-23.7-10.6-23.7-23.7v-12l107.7,0v12C154.4,189.6,143.8,200.3,130.7,200.3z"/>
			<line class="st5" x1="84.8" y1="119.5" x2="84.8" y2="159"/>
		</g>
	</g>
	<g>
		<g id="XMLID_5_">
			<polyline id="XMLID_16_" class="st28" points="820.1,163.3 820.1,83 795.2,64.9 795.2,112.2 			"/>
			<polyline id="XMLID_15_" class="st33" points="764.7,164.8 764.7,118.8 806,118.8 806,164.8 			"/>
			<g>
				<g>
					<line id="XMLID_14_" class="st3" x1="772.7" y1="128.3" x2="777" y2="128.3"/>
					<line id="XMLID_13_" class="st3" x1="772.7" y1="136.9" x2="777" y2="136.9"/>
					<line id="XMLID_12_" class="st3" x1="772.7" y1="145.5" x2="777" y2="145.5"/>
				</g>
				<g>
					<line id="XMLID_11_" class="st3" x1="783.2" y1="128.3" x2="787.5" y2="128.3"/>
					<line id="XMLID_10_" class="st3" x1="783.2" y1="136.9" x2="787.5" y2="136.9"/>
					<line id="XMLID_9_" class="st3" x1="783.2" y1="145.5" x2="787.5" y2="145.5"/>
				</g>
				<g>
					<line id="XMLID_8_" class="st3" x1="793.8" y1="128.3" x2="798.1" y2="128.3"/>
					<line id="XMLID_7_" class="st3" x1="793.8" y1="136.9" x2="798.1" y2="136.9"/>
					<line id="XMLID_6_" class="st3" x1="793.8" y1="145.5" x2="798.1" y2="145.5"/>
				</g>
			</g>
		</g>
		<line id="XMLID_4_" class="st17" x1="716" y1="172.1" x2="830.4" y2="172.1"/>
		<polyline class="st0" points="783.2,94.1 728.2,94.1 728.2,164.8 		"/>
		<g>
			<line id="XMLID_3_" class="st34" x1="736.1" y1="103" x2="753" y2="103"/>
			<line id="XMLID_2_" class="st34" x1="736.1" y1="111.6" x2="753" y2="111.6"/>
			<line id="XMLID_1_" class="st34" x1="736.1" y1="120.2" x2="753" y2="120.2"/>
		</g>
	</g>
</g>
</svg>
