<?xml version="1.0" encoding="utf-8"?>
<!-- Generator: Adobe Illustrator 20.0.0, SVG Export Plug-In . SVG Version: 6.00 Build 0)  -->
<svg version="1.1" id="Layer_1" xmlns="http://www.w3.org/2000/svg" xmlns:xlink="http://www.w3.org/1999/xlink" x="0px" y="0px"
	 viewBox="0 0 328 393.5" style="enable-background:new 0 0 328 393.5;" xml:space="preserve">
<style type="text/css">
  .st0{fill:none;stroke:#333;stroke-width:3;stroke-miterlimit:10;}
  .st1{fill:none;stroke:#333;stroke-width:4.5;stroke-miterlimit:10;}
  .st2{clip-path:url(#SVGID_2_);fill:none;stroke:#333;stroke-width:4.5;stroke-miterlimit:10;}
  .st3{clip-path:url(#SVGID_4_);fill:none;stroke:#333;stroke-width:4.5;stroke-miterlimit:10;}
  .st4{fill:#333;}
  .st5{fill:none;stroke:#333;stroke-width:3;stroke-miterlimit:10;}
  .st6{fill:#FF7D28;}
  .st7{fill:none;}
  .st8{fill:none;stroke:#0a64a0;stroke-width:4.5;stroke-miterlimit:10;}
  .st9{fill:none;stroke:#333;stroke-width:4.5;stroke-miterlimit:10;}
  .st10{clip-path:url(#SVGID_6_);}
  .st11{clip-path:url(#SVGID_8_);fill:none;stroke:#333;stroke-width:3;stroke-miterlimit:10;}
  .st12{fill:none;stroke:#865cd6;stroke-width:4.5;stroke-miterlimit:10;}
  .st13{clip-path:url(#SVGID_10_);}
  .st14{clip-path:url(#SVGID_12_);fill:#FF7D28;}
  .st15{clip-path:url(#SVGID_12_);fill:none;stroke:#333;stroke-width:3;stroke-miterlimit:10;}
  .st16{clip-path:url(#SVGID_14_);}
  .st17{clip-path:url(#SVGID_16_);fill:#FF7D28;}
  .st18{clip-path:url(#SVGID_16_);fill:none;stroke:#0a64a0;stroke-width:4.5;stroke-miterlimit:10;}
</style>
<g>
	<polyline class="st0" points="13.7,293.1 13.7,128.7 77,128.7 77,293.1 	"/>
	<polyline class="st0" points="230.1,293.1 230.1,88.7 313.7,88.7 313.7,293.1 	"/>
	<polyline class="st0" points="88.2,293.1 88.2,165.2 153,165.2 	"/>
	<path class="st1" d="M271.9,37l-24.2,0l-9.5,33.4c0,0,12,5.9,33.7,5.9"/>
	<path class="st1" d="M271.9,37l24.2,0l9.5,33.4c0,0-12,5.9-33.7,5.9"/>
	<g>
		<defs>
			<rect id="SVGID_1_" x="248.8" y="8.1" width="45.5" height="22.5"/>
		</defs>
		<clipPath id="SVGID_2_">
			<use xlink:href="#SVGID_1_"  style="overflow:visible;"/>
		</clipPath>
		<ellipse class="st2" cx="271.9" cy="41.7" rx="16.3" ry="25.6"/>
	</g>
	<g>
		<defs>
			<rect id="SVGID_3_" x="22.6" y="37" width="45.5" height="40.1"/>
		</defs>
		<clipPath id="SVGID_4_">
			<use xlink:href="#SVGID_3_"  style="overflow:visible;"/>
		</clipPath>
		<ellipse class="st3" cx="45.6" cy="73.1" rx="16.3" ry="25.6"/>
	</g>
	<polygon class="st1" points="62.4,118.6 27.9,118.6 22.9,84.3 67.4,84.3 	"/>
	<rect x="97.8" y="128.7" class="st1" width="50.3" height="26.4"/>
	<g>
		<path class="st4" d="M165.8,75c0,8.3,5.3,15.4,14.6,13.4"/>
		<path class="st5" d="M165.8,75c0,8.3,5.3,15.4,14.6,13.4"/>
		<path class="st6" d="M192.2,267.2l-39.2,0l19.4-117.5c-2.2-2.5-6.6-8.3-7.3-13.9c-0.8-7.2,3.9-13.5,9.6-21.2l31.7,12.1
			c0,8.1-1.7,18.1-3.5,25.3c-3.2,13-7.5,31.9-7.5,31.9l23.2,83.4l-19.6,0"/>
		<path class="st7" d="M192.2,267.8l-39.2,0l19.4-117.5c-2.2-2.5-6.6-8.3-7.3-13.9c-0.8-7.2,3.9-13.5,9.6-21.2l31.7,12.1
			c0,8.1-1.7,18.1-3.5,25.3c-3.2,13-7.5,31.9-7.5,31.9l23.2,83.4l-19.6,0"/>
		<path class="st5" d="M183.9,274.9l3.7,15.4l53.3,72.3l9.1-6.2c-12.5-22.7-19.9-49.8-41.5-68.7l-2.8-13"/>
		<path class="st5" d="M175,276.3c-2,20.1-20.1,93.3-20.1,93.3l-10.9,0l9.8-95.4"/>
		<path class="st8" d="M206.4,127.2c0,8.1-1.7,18.1-3.5,25.3c-3.2,13,15.7,115.2,15.7,115.2l-39.2,0"/>
		<line class="st9" x1="137.9" y1="379.6" x2="156.7" y2="379.6"/>
		<line class="st9" x1="241" y1="373.8" x2="257.9" y2="362.3"/>
		<rect x="143.8" y="273.6" class="st4" width="80.2" height="3.2"/>
		<path class="st8" d="M174.7,115.1c-5.7,7.7-10.4,14-9.6,21.2c0.7,5.6,5.1,11.4,7.3,13.9L153,267.8l39.2,0"/>
		<path class="st5" d="M182.1,237.5l5.4-58.4c0,0-0.6-36.1-1-55.4c-0.3-16.2,14.8-16.7,14.8-16.7c4.7,4,6.7,5.9,6.7,15.5"/>
		<g>
			<defs>
				<polygon id="SVGID_5_" points="130.5,186.9 115.5,206.4 121.5,219.4 155.2,203.9 161.4,165.2 				"/>
			</defs>
			<clipPath id="SVGID_6_">
				<use xlink:href="#SVGID_5_"  style="overflow:visible;"/>
			</clipPath>
			<g class="st10">
				<defs>
					<rect id="SVGID_7_" x="-821.4" y="-367.6" width="1268" height="845.3"/>
				</defs>
				<clipPath id="SVGID_8_">
					<use xlink:href="#SVGID_7_"  style="overflow:visible;"/>
				</clipPath>
				<path class="st11" d="M125.3,215.1c-0.8-2-1.1-4-0.9-6c0.5-4,3.3-6.8,6.9-9.3l35.6-28"/>
			</g>
		</g>
		<g>
			<g>
				<rect x="136.5" y="244.8" class="st6" width="97" height="91.6"/>
				<rect x="147.2" y="253.5" class="st6" width="76.2" height="74.5"/>
				<rect x="147.2" y="253.5" class="st12" width="76.2" height="74.5"/>
				<path class="st6" d="M196.1,62.8c0-8.5-6.9-15.4-15.4-15.4c-8.5,0-15.3,6.9-15.3,15.4C165.4,71.3,196.1,86.8,196.1,62.8"/>
			</g>
		</g>
		<g>
			<defs>
				<path id="SVGID_9_" d="M161.4,69.2l2.8,37.1l24.5-10.2l-6.8-23.8c-8.9-2.3-15-3.3-18.2-3.3C162.6,68.9,161.9,69,161.4,69.2"/>
			</defs>
			<clipPath id="SVGID_10_">
				<use xlink:href="#SVGID_9_"  style="overflow:visible;"/>
			</clipPath>
			<g class="st13">
				<defs>
					<rect id="SVGID_11_" x="-821.4" y="-367.6" width="1268" height="845.3"/>
				</defs>
				<clipPath id="SVGID_12_">
					<use xlink:href="#SVGID_11_"  style="overflow:visible;"/>
				</clipPath>
				<path class="st14" d="M165.8,57.8l0,17.2c0,8.3,5.3,15.4,14.6,13.4l6.3,16.3L219.4,82l-2.9-28.9L165.8,57.8z"/>
				<path class="st15" d="M165.8,57.8l0,17.2c0,8.3,5.3,15.4,14.6,13.4l6.3,16.3L219.4,82l-2.9-28.9L165.8,57.8z"/>
			</g>
		</g>
		<g>
			<defs>
				<polygon id="SVGID_13_" points="157.5,37 157.5,63.5 176.7,64.4 200,69.2 203.8,60.2 203.8,37 				"/>
			</defs>
			<clipPath id="SVGID_14_">
				<use xlink:href="#SVGID_13_"  style="overflow:visible;"/>
			</clipPath>
			<g class="st16">
				<defs>
					<rect id="SVGID_15_" x="-821.4" y="-367.6" width="1268" height="845.3"/>
				</defs>
				<clipPath id="SVGID_16_">
					<use xlink:href="#SVGID_15_"  style="overflow:visible;"/>
				</clipPath>
				<path class="st17" d="M196.1,62.8c0-8.5-6.9-15.4-15.4-15.4c-8.5,0-15.3,6.9-15.3,15.4C165.4,71.3,196.1,86.8,196.1,62.8"/>
				<path class="st18" d="M196.1,62.8c0-8.5-6.9-15.4-15.4-15.4c-8.5,0-15.3,6.9-15.3,15.4C165.4,71.3,196.1,86.8,196.1,62.8z"/>
			</g>
		</g>
		<g>
			<path class="st8" d="M213.5,66.8c0,0-10.7,5.8-30.2-0.5c-19.5-6.3-34.8-3.2-39.7-0.7"/>
		</g>
	</g>
</g>
</svg>
