<?xml version="1.0" encoding="utf-8"?>
<!-- Generator: Adobe Illustrator 20.0.0, SVG Export Plug-In . SVG Version: 6.00 Build 0)  -->
<svg version="1.1" id="Layer_1" xmlns="http://www.w3.org/2000/svg" xmlns:xlink="http://www.w3.org/1999/xlink" x="0px" y="0px"
	 viewBox="0 0 371 360" style="enable-background:new 0 0 371 360;" xml:space="preserve">
<style type="text/css">
	.st0{fill:none;stroke:#F68D70;stroke-width:4.5;stroke-miterlimit:10;}
	.st1{fill:none;stroke:#FFFFFF;stroke-width:4.5;stroke-miterlimit:10;}
	.st2{fill:none;stroke:#211F1F;stroke-width:4;stroke-miterlimit:10;}
	.st3{fill:none;stroke:#56C5D0;stroke-width:4.5;stroke-miterlimit:10;}
	.st4{fill:none;stroke:#00B48D;stroke-width:4.5;stroke-miterlimit:10;}
	.st5{fill:none;stroke:#F5967B;stroke-width:3;stroke-miterlimit:10;}
	.st6{fill:none;stroke:#00B288;stroke-width:4.5;stroke-miterlimit:10;}
	.st7{fill:none;stroke:#00B288;stroke-width:4;stroke-miterlimit:10;}
	.st8{fill:none;stroke:#F69679;stroke-width:3;stroke-miterlimit:10;}
	.st9{fill:none;stroke:#56C5D0;stroke-width:3;stroke-miterlimit:10;}
	.st10{fill:none;stroke:#FFFFFF;stroke-width:3;stroke-miterlimit:10;}
</style>
<g>
	<g>
		<circle id="XMLID_47_" class="st0" cx="30.5" cy="337.9" r="8.1"/>
		<circle id="XMLID_46_" class="st0" cx="95.1" cy="337.9" r="8.1"/>
		<polyline id="XMLID_45_" class="st1" points="95.1,305.9 95.1,282 13.2,282 13.2,329.8 		"/>
		<polyline id="XMLID_44_" class="st1" points="111.1,329.8 123.6,329.8 123.6,305.9 74.6,305.9 		"/>
		<line id="XMLID_43_" class="st1" x1="74.6" y1="329.8" x2="49.4" y2="329.8"/>
		<path id="XMLID_42_" class="st2" d="M111.1,326.4"/>
	</g>
	<line id="XMLID_37_" class="st3" x1="339.2" y1="349.4" x2="339.2" y2="310.1"/>
	<circle id="XMLID_36_" class="st4" cx="339.2" cy="290.7" r="18"/>
	<path id="XMLID_35_" class="st2" d="M247.6,269"/>
	<polyline id="XMLID_34_" class="st5" points="206.2,349.3 206.2,309.9 226.2,290 246.2,309.9 246.2,349.4 	"/>
	<line id="XMLID_33_" class="st3" x1="234.7" y1="349.4" x2="234.7" y2="333.8"/>
	<polyline id="XMLID_28_" class="st6" points="226.2,272.8 226.2,26.3 151.8,26.3 151.8,349.4 	"/>
	<polyline id="XMLID_26_" class="st5" points="92.3,269 92.3,205.1 137.8,205.1 137.8,349.4 	"/>
	<line id="XMLID_25_" class="st7" x1="163.6" y1="26.3" x2="163.6" y2="349.4"/>
	<g>
		<polyline id="XMLID_22_" class="st1" points="321.3,348.9 321.3,333.5 254.5,292 254.5,348.9 		"/>
		<line id="XMLID_21_" class="st8" x1="272.8" y1="348.9" x2="272.8" y2="332.2"/>
	</g>
	<polyline id="XMLID_492_" class="st9" points="113,192.1 113.4,80.9 38.5,114.4 38.5,269 	"/>
	<line id="XMLID_491_" class="st4" x1="54.2" y1="142.2" x2="54.2" y2="126.7"/>
	<line id="XMLID_490_" class="st4" x1="54.2" y1="178.6" x2="54.2" y2="163.1"/>
	<line id="XMLID_489_" class="st4" x1="54.2" y1="215" x2="54.2" y2="199.5"/>
	<line id="XMLID_488_" class="st4" x1="54.2" y1="251.4" x2="54.2" y2="235.9"/>
	<polyline id="XMLID_487_" class="st10" points="247.6,196.3 272.8,171.7 300.1,199 300.1,292.6 	"/>
	<circle class="st9" cx="275.1" cy="22" r="12.8"/>
	<circle class="st9" cx="300.6" cy="22.5" r="12.8"/>
</g>
</svg>
